<?xml version="1.0" encoding="UTF-8" standalone="no"?>
<!-- Creator: CorelDRAW -->

<svg
   xmlns:dc="http://purl.org/dc/elements/1.1/"
   xmlns:cc="http://creativecommons.org/ns#"
   xmlns:rdf="http://www.w3.org/1999/02/22-rdf-syntax-ns#"
   xmlns:svg="http://www.w3.org/2000/svg"
   xmlns="http://www.w3.org/2000/svg"
   xmlns:sodipodi="http://sodipodi.sourceforge.net/DTD/sodipodi-0.dtd"
   xmlns:inkscape="http://www.inkscape.org/namespaces/inkscape"
   xml:space="preserve"
   width="48"
   height="48"
   style="fill-rule:evenodd"
   viewBox="0 0 13.546667 13.546667"
   id="svg2"
   version="1.1"
   inkscape:version="0.48.3.1 r9886"
   sodipodi:docname="huayra_accesible.svg"
   inkscape:export-filename="/home/alumno/.icons/huayra-dev/22x22/all/start-here.png"
   inkscape:export-xdpi="123"
   inkscape:export-ydpi="123"><metadata
   id="metadata336"><rdf:RDF><cc:Work
       rdf:about=""><dc:format>image/svg+xml</dc:format><dc:type
         rdf:resource="http://purl.org/dc/dcmitype/StillImage" /><dc:title></dc:title></cc:Work></rdf:RDF></metadata><sodipodi:namedview
   pagecolor="#5f5f5f"
   bordercolor="#666666"
   borderopacity="1"
   objecttolerance="10"
   gridtolerance="10"
   guidetolerance="10"
   inkscape:pageopacity="0"
   inkscape:pageshadow="2"
   inkscape:window-width="1438"
   inkscape:window-height="851"
   id="namedview334"
   showgrid="false"
   inkscape:zoom="4.9004393"
   inkscape:cx="-23.817918"
   inkscape:cy="1.4120012"
   inkscape:window-x="0"
   inkscape:window-y="25"
   inkscape:window-maximized="1"
   inkscape:current-layer="svg2" />
 <defs
   id="defs4">
  <style
   type="text/css"
   id="style6">
   
    .fil0 {fill:#99AE6A}
    .fil4 {fill:#73A848}
    .fil8 {fill:#6F448A;fill-rule:nonzero}
    .fil1 {fill:#99AE6A;fill-rule:nonzero}
    .fil3 {fill:#ABA0C0;fill-rule:nonzero}
    .fil2 {fill:#BA8FBA;fill-rule:nonzero}
    .fil5 {fill:#73A848;fill-rule:nonzero}
    .fil6 {fill:#98227A;fill-rule:nonzero}
    .fil9 {fill:#B299BF;fill-rule:nonzero}
    .fil7 {fill:#D189B2;fill-rule:nonzero}
   
  </style>
 
  
  
  
  
  
  
  
  
  
  
  
  
  
  
  
  
  
  
  
  
  
  
  
  
  
  
  
  
  
  
  
  
  
  
  
  
  
  
  
  
  
  
  
  
  
  
  
  
  
  
  
  
  
  
  
  
  
  
  
  
  
  
  
  
  
  
  
  
  
  
  
  
  
  
  
  
  
  
  
  
  
  
  
  
  
  
  
  
  
  
  
  
  
 
   
   
   
   
   
   
   
   
   
   
   
   
   
   
   
   
   
   
   
   
   
   
   
  </defs>
 
<g
   id="g3762"
   transform="matrix(3.0257592,0,0,3.0257592,-0.10949489,-0.35266987)"><path
     inkscape:connector-curvature="0"
     id="path2992"
     d="m 0.9420749,3.4523606 c 0,0 -0.74570663,-0.8105507 -0.75867544,-0.8429728 C 0.17043066,2.5769658 0.00832051,2.3824336 0.06668016,2.2851675 0.12503986,2.1879015 0.38441602,2.148995 0.4687133,2.2592295 c 0.0842973,0.1102349 0.2334386,0.1815634 0.2334386,0.1815634 0,0 -0.47336161,-1.232037 -0.42797076,-1.3033655 0.0453908,-0.071328 0.20101656,-0.26586024 0.34367349,-0.097266 0.14265693,0.1685946 0.64844057,0.992114 0.64844057,0.992114 0,0 -0.084298,-1.5821949 0.038906,-1.64703896 0.1232037,-0.064844 0.4539084,-0.11023489 0.4603928,0.0259376 0.00648,0.13617251 0.1102349,1.36172516 0.1102349,1.36172516 0,0 0.3177358,-1.40711599 0.3566423,-1.43953802 0.038907,-0.032422 0.3890649,-0.0842973 0.4409401,0.0583597 C 2.7252863,0.53437806 2.5242698,1.8053216 2.5113011,1.844228 2.4983322,1.8831344 3.2959141,1.1503966 3.3737269,1.0466461 3.4515399,0.94289562 3.5617748,0.70945703 3.6849784,0.79375429 3.8081823,0.87805156 3.9054482,0.98828645 3.8989638,1.1763342 3.8924788,1.3643819 3.4904464,2.0582133 3.3477892,2.1619638 3.2051324,2.2657144 3.8341197,1.9479784 3.9249015,1.8831344 4.015683,1.8182899 4.1453711,1.7145398 4.2361529,1.7988366 c 0.090781,0.084298 0.2334386,0.2982827 0.1815634,0.415002 -0.051875,0.1167193 -0.5576589,0.447424 -0.6484406,0.4928148 -0.090781,0.045391 -0.2464075,0.110235 -0.2464075,0.110235 0,0 0.5706278,-0.05836 0.6808626,-0.05836 0.110235,0 0.285314,0.1491416 0.285314,0.2464074 0,0.097266 -0.2982826,0.2982829 -0.4020332,0.3501581 -0.1037506,0.051875 -0.6160185,0.129688 -0.6419562,0.1361724 -0.025938,0.00648 -0.2269541,0.025938 -0.2269541,0.025938 0,0 0.4085176,0.3112515 0.54469,0.3825799 0.1361725,0.071328 0.3112515,0.2010165 0.3112515,0.2010165 0,0 0.1167194,0.1232038 0.00648,0.2334386 -0.110235,0.110235 -0.5965652,0.05836 -0.5965652,0.05836 L 2.0833303,3.9062689 c 0,0 -0.2399231,0.084298 -0.3955487,0.051875 C 1.5321558,3.9257222 1.2857483,3.8543935 1.2273888,3.7506432 1.1690291,3.6468927 0.9420749,3.4523606 0.9420749,3.4523606 z"
     style="fill:#ffffff;fill-opacity:1;stroke:none" /><path
     sodipodi:nodetypes="ccccc"
     style="fill:#492356;fill-opacity:1"
     inkscape:connector-curvature="0"
     d="M 0.77449933,3.0493051 1.0379942,3.3104994 C 1.4894461,2.1322513 2.7949596,2.938097 2.3060232,3.7197964 L 2.6631185,3.8536709 C 3.3515285,2.7852027 1.7376552,1.3038626 0.77449933,3.0493051 z"
     class="fil0"
     id="_121731384" /><path
     sodipodi:nodetypes="zsccz"
     style="fill:#492356;fill-opacity:1"
     inkscape:connector-curvature="0"
     d="M 0.3305801,2.5196883 C 0.15893968,2.32044 0.27625423,2.3787847 0.45489488,2.5068661 0.6335355,2.6349474 0.90373246,2.7754014 1.1631981,3.0488136 l -0.127629,0.252767 C 0.62095325,2.9313891 0.50222051,2.7189366 0.3305801,2.5196883 z"
     class="fil0"
     id="_121328256" /><path
     sodipodi:open="true"
     sodipodi:end="12.46847"
     sodipodi:start="6.2071318"
     transform="matrix(0.12461196,0,0,0.12461196,0.34985537,1.8287521)"
     d="m 13.844562,12.550547 c 0.112017,1.470034 -0.988873,2.752541 -2.458908,2.864558 -1.4700343,0.112018 -2.7525408,-0.988873 -2.8645582,-2.458907 -0.1120173,-1.470035 0.9888732,-2.752542 2.4589082,-2.864559 1.447376,-0.1102906 2.717609,0.956188 2.859492,2.40081"
     sodipodi:ry="2.6694496"
     sodipodi:rx="2.6694496"
     sodipodi:cy="12.753372"
     sodipodi:cx="11.182829"
     id="path3582"
     style="fill:#492356;fill-opacity:1;stroke:none"
     sodipodi:type="arc" /><path
     sodipodi:nodetypes="zsccz"
     style="fill:#492356;fill-opacity:1;fill-rule:evenodd"
     inkscape:connector-curvature="0"
     d="M 0.55303969,1.4235658 C 0.44845571,1.1623158 0.53952389,1.2521608 0.66832618,1.4336918 0.79712781,1.6152232 1.1185972,2.1611802 1.2836866,2.5244364 L 1.0415531,2.6923917 C 0.84415567,2.1443169 0.6576235,1.6848159 0.55303969,1.4235658 z"
     class="fil0"
     id="_121328256-7" /><path
     sodipodi:nodetypes="zsccz"
     style="fill:#492356;fill-opacity:1;fill-rule:evenodd"
     inkscape:connector-curvature="0"
     d="M 1.4703201,0.73963616 C 1.4617521,0.45836054 1.5406627,0.56881621 1.575128,0.78871551 1.6128792,1.0295791 1.7065185,1.7834678 1.7473654,2.2702375 L 1.462295,2.3448855 c 0.0027,-0.5825325 0.01659,-1.3239742 0.00803,-1.60525025 z"
     class="fil0"
     id="_121328256-7-9" /><path
     sodipodi:nodetypes="zsccz"
     style="fill:#492356;fill-opacity:1;fill-rule:evenodd"
     inkscape:connector-curvature="0"
     d="M 2.3703766,0.68512595 C 2.4485375,0.39340187 2.4952977,0.50335987 2.4933492,0.74043632 2.4913993,0.97751164 2.4161223,1.924318 2.1342282,2.378003 L 1.8701234,2.2664387 C 2.1474038,1.7130207 2.2922146,0.97685022 2.3703766,0.68512595 z"
     class="fil0"
     id="_121328256-7-4" /><path
     sodipodi:nodetypes="zsccz"
     style="fill:#492356;fill-opacity:1;fill-rule:evenodd"
     inkscape:connector-curvature="0"
     d="M 3.4887058,1.246554 C 3.7114184,0.91018037 3.6788368,1.1420246 3.5711584,1.3532456 3.356237,1.774833 2.8063962,2.4016009 2.3922944,2.7113495 L 2.1881646,2.4391912 C 2.7035289,2.0685202 3.2659932,1.5829278 3.4887058,1.246554 z"
     class="fil0"
     id="_121328256-7-4-9" /><path
     sodipodi:nodetypes="zsccz"
     style="fill:#492356;fill-opacity:1;fill-rule:evenodd"
     inkscape:connector-curvature="0"
     d="m 3.977494,2.9710041 c 0.3685183,-0.084292 0.2271999,0.067198 0.021995,0.1538261 -0.2204298,0.093058 -1.0123921,0.333877 -1.5124191,0.3477562 l 0.00543,-0.3450761 C 3.0808038,3.1270311 3.608978,3.0552963 3.9774963,2.9710041 z"
     class="fil0"
     id="_121328256-7-4-9-1" /><path
     sodipodi:nodetypes="zsccz"
     style="fill:#492356;fill-opacity:1;fill-rule:evenodd"
     inkscape:connector-curvature="0"
     d="M 3.7464084,4.0860854 C 4.010048,4.2056816 3.8919748,4.204183 3.7276064,4.182156 3.5069948,4.1525918 3.0113386,3.9822596 2.6503619,3.8494443 L 2.7456741,3.5706019 C 3.247483,3.8336643 3.4827687,3.9664892 3.7464082,4.0860854 z"
     class="fil0"
     id="_121328256-9" /><path
     inkscape:transform-center-x="-0.062196629"
     inkscape:transform-center-y="0.85839832"
     sodipodi:nodetypes="zsccz"
     style="fill:#492356;fill-opacity:1;fill-rule:evenodd"
     inkscape:connector-curvature="0"
     d="M 3.9502314,2.0852372 C 4.3055217,1.8904389 4.2035752,2.0792625 4.0171602,2.2257454 3.8169157,2.3830982 3.0705559,2.8588736 2.5595527,3.0269459 L 2.4658264,2.6947909 C 3.0716,2.5122277 3.5949409,2.2800353 3.9502314,2.0852372 z"
     class="fil0"
     id="_121328256-7-4-9-1-7" /></g></svg>